<svg width="126" height="45" viewBox="0 0 126 45" fill="none" xmlns="http://www.w3.org/2000/svg">
<path d="M68.7291 22.4441C68.6977 21.6006 68.5501 20.8592 68.2867 20.2188C68.0225 19.5791 67.6732 19.0477 67.2389 18.6261C66.8041 18.2043 66.3078 17.8925 65.7491 17.689C65.1903 17.4863 64.6157 17.3846 64.0264 17.3846C62.8158 17.3846 61.768 17.8294 60.8833 18.7195C59.9986 19.6096 59.4938 20.8511 59.3701 22.4441H68.7291ZM59.1839 26.2852C59.277 28.035 59.7813 29.4244 60.6971 30.4552C61.6124 31.4856 62.8158 32.0009 64.3056 32.0009C65.2987 32.0009 66.1753 31.7747 66.9363 31.3218C67.6966 30.8694 68.1856 30.2368 68.4031 29.4244H74.6424C73.928 31.7982 72.6868 33.6254 70.9174 34.9055C69.1481 36.1864 67.0367 36.8263 64.5851 36.8263C56.9489 36.8263 53.1309 32.6413 53.1309 24.2713C53.1309 22.491 53.3787 20.8827 53.8758 19.4458C54.3721 18.0094 55.0936 16.7754 56.0408 15.7447C56.9875 14.7139 58.1434 13.9256 59.5098 13.3788C60.8752 12.8328 62.4432 12.5591 64.2125 12.5591C67.7513 12.5591 70.4284 13.6997 72.2445 15.9789C74.0605 18.259 74.9683 21.6946 74.9683 26.2852H59.1839Z" fill="black"/>
<path d="M90.9856 24.9268C90.6749 25.2394 90.2248 25.489 89.6355 25.6764C89.0456 25.8639 88.192 26.0674 87.0745 26.2852C85.3357 26.6296 84.1412 27.0666 83.4893 27.5975C82.8375 28.1286 82.5116 28.8935 82.5116 29.8924C82.5116 31.6109 83.4893 32.4691 85.4449 32.4691C86.2204 32.4691 86.942 32.3369 87.6099 32.0713C88.2768 31.806 88.8511 31.4468 89.3326 30.9939C89.8136 30.5415 90.2012 30.0098 90.4968 29.4007C90.7914 28.7918 90.9389 28.144 90.9389 27.4566L90.9856 24.9268ZM91.4046 36.2172C91.2184 35.6242 91.094 34.9368 91.0323 34.156C90.3179 34.9684 89.3712 35.6161 88.192 36.1001C87.012 36.5837 85.6463 36.8263 84.0945 36.8263C81.456 36.8263 79.5235 36.2407 78.2976 35.0696C77.0709 33.8982 76.4585 32.3757 76.4585 30.5018C76.4585 28.8466 76.7219 27.5268 77.2501 26.543C77.7775 25.5595 78.5071 24.7862 79.4385 24.224C80.3696 23.6618 81.4793 23.2484 82.7677 22.9828C84.0553 22.7175 85.4602 22.4754 86.9811 22.2562C88.5019 22.0384 89.5263 21.7494 90.0545 21.3898C90.5819 21.0312 90.8458 20.4455 90.8458 19.6331C90.8458 18.8833 90.4968 18.2979 89.7983 17.8763C89.1 17.4545 88.1606 17.2437 86.9811 17.2437C85.5844 17.2437 84.5833 17.5562 83.9781 18.1808C83.3732 18.8059 82.9925 19.6331 82.8375 20.6638H77.2034C77.234 19.4774 77.4282 18.3843 77.7855 17.3846C78.142 16.3851 78.7166 15.5266 79.5082 14.8079C80.2998 14.0897 81.3315 13.5356 82.6044 13.1448C83.877 12.7545 85.4288 12.5591 87.2607 12.5591C89.0606 12.5591 90.5899 12.7626 91.8469 13.168C93.1042 13.5744 94.1126 14.1598 94.8736 14.9247C95.6338 15.6904 96.1845 16.6429 96.5266 17.7824C96.8678 18.923 97.0386 20.2112 97.0386 21.6476V36.2172H91.4046Z" fill="black"/>
<path d="M112.171 12.5596C111.549 12.5596 110.943 12.592 110.355 12.654C109.765 12.7161 109.183 12.8646 108.609 13.0967C108.032 13.3315 107.474 13.6688 106.932 14.1061C106.388 14.5433 105.867 15.1506 105.371 15.9333V13.1668H99.6924V36.2161H105.744V24.2245C105.744 20.508 107.592 18.6487 111.286 18.6487C111.592 18.6487 111.895 18.6619 112.201 18.6916V12.5596H112.171Z" fill="black"/>
<path d="M126 7V36.2164H119.946V18.7864H114.854V12.3491C115.657 12.3032 116.36 12.2063 116.966 12.0606C117.867 11.8417 118.605 11.5043 119.179 11.0512C119.753 10.6004 120.187 10.0363 120.483 9.3643C120.777 8.69468 120.971 7.90658 121.065 7H126Z" fill="black"/>
<mask id="mask0_152_314" style="mask-type:alpha" maskUnits="userSpaceOnUse" x="0" y="0" width="39" height="45">
<path d="M17.5703 0.0448029C16.9734 0.0817788 16.3798 0.172734 15.7996 0.320908C15.2698 0.456126 14.7451 0.613746 14.2169 0.756522C9.29746 2.03961 5.54062 4.89701 2.87287 9.25235C0.463184 13.1853 -0.355247 17.4478 0.136723 21.9942C0.564046 25.9425 2.32913 29.2917 4.84022 32.2751C7.0734 34.9285 9.7052 37.1249 12.5908 39.0323C15.5839 41.0106 18.7713 42.5585 22.1893 43.6305C23.0332 43.895 23.9002 44.0553 24.7661 44.2213C24.9512 44.2567 25.1527 44.2907 25.2803 44.1004C25.3852 43.9444 25.3439 43.7833 25.2742 43.6348C25.1993 43.4758 25.0942 43.3331 24.9823 43.1973C24.4083 42.5012 23.989 41.7161 23.636 40.8897C23.2202 39.9156 23.3693 38.8414 24.7409 38.483C28.318 37.5478 31.2819 35.563 33.7063 32.7876C37.1952 28.7934 38.8256 24.0945 38.5493 18.7983C38.2564 13.1864 35.9918 8.45831 31.7653 4.76153C28.0752 1.53437 23.787 0 19.0038 0C18.5306 0 18.0531 0.0151142 17.5703 0.0448029Z" fill="white"/>
</mask>
<g mask="url(#mask0_152_314)">
<path d="M39.9204 -1.34961V18.4784L34.3938 18.4364C34.3845 18.4364 34.3751 18.4364 34.3657 18.4363L34.3375 18.4362C33.0309 18.4362 31.7481 18.7919 30.6247 19.4666L29.2762 20.2771L27.8708 18.6842C27.7576 18.5565 27.631 18.4405 27.4934 18.339C26.9732 17.9549 26.3359 17.7981 25.6988 17.8969C25.0614 17.9957 24.5002 18.3382 24.1188 18.8615L23.2373 20.0707L22.0479 15.701C21.8392 14.9332 21.2308 14.3448 20.4588 14.1659C19.9003 14.0374 19.3252 14.134 18.8391 14.4403C18.353 14.7464 18.015 15.2247 17.8865 15.7866L16.8138 20.4806L16.1534 17.4994C15.9632 16.643 15.3264 15.9542 14.4918 15.7024C13.8735 15.5153 13.2209 15.5817 12.6532 15.8894C12.0854 16.1968 11.6704 16.708 11.4847 17.3296L10.6977 19.9657L10.1754 18.3763C9.84735 17.3795 8.92645 16.7102 7.88322 16.7102H6.43789C5.69725 16.7102 5.09664 17.3142 5.09664 18.0597C5.09664 18.8051 5.69725 19.4092 6.43789 19.4092H7.68928L9.21884 24.0627C9.49782 24.9094 10.4101 25.3715 11.253 25.0908C11.7506 24.925 12.1377 24.524 12.2882 24.0193L13.7584 19.0953L15.2266 25.7212C15.3202 26.1434 15.5713 26.5037 15.9345 26.7358C16.1955 26.9028 16.4922 26.9887 16.7945 26.9887C16.912 26.9887 17.0308 26.9757 17.1483 26.9493C17.7487 26.8143 18.2267 26.3374 18.3662 25.7318L20.0234 18.481L20.9438 21.8612C21.0948 22.4174 21.4527 22.8811 21.9505 23.1669C22.4484 23.4522 23.027 23.5254 23.5799 23.3737C24.045 23.2457 24.4584 22.9594 24.7438 22.568L26.0856 20.7271L27.2702 22.0693C28.1251 23.0368 29.5463 23.2576 30.6512 22.5942L31.9997 21.784C32.717 21.353 33.5242 21.1295 34.3732 21.1354L39.9204 21.1774V45.5982H-1.34131V-1.34961H39.9204Z" fill="#00BF69"/>
</g>
</svg>
